<svg width="1600" height="640" viewBox="0 0 1600 640" fill="none" xmlns="http://www.w3.org/2000/svg">
  <defs>
    <linearGradient id="a" x1="0" y1="0" x2="1600" y2="640" gradientUnits="userSpaceOnUse">
      <stop stop-color="#0A1322"/>
      <stop offset="1" stop-color="#101D33"/>
    </linearGradient>
    <linearGradient id="b" x1="0" y1="0" x2="1" y2="1">
      <stop stop-color="#49A2FF"/>
      <stop offset="1" stop-color="#1F6FEB"/>
    </linearGradient>
  </defs>
  <rect width="1600" height="640" fill="url(#a)"/>
  <rect x="70" y="80" width="760" height="480" rx="20" fill="#131F34" stroke="#2A4267"/>
  <rect x="92" y="116" width="716" height="54" rx="12" fill="#0B1528" stroke="#274062"/>
  <rect x="110" y="132" width="260" height="20" rx="8" fill="#1A2E4D"/>
  <rect x="382" y="132" width="210" height="20" rx="8" fill="#17345A"/>
  <rect x="604" y="132" width="186" height="20" rx="8" fill="#1A2E4D"/>

  <rect x="92" y="188" width="500" height="350" rx="12" fill="#091224" stroke="#264262"/>
  <rect x="610" y="188" width="198" height="170" rx="12" fill="#0B1528" stroke="#274062"/>
  <rect x="610" y="368" width="198" height="170" rx="12" fill="#0B1528" stroke="#274062"/>

  <rect x="104" y="200" width="300" height="156" fill="#2B658E"/>
  <rect x="406" y="200" width="174" height="92" fill="#7C2D7A"/>
  <rect x="406" y="294" width="174" height="62" fill="#4D3DB7"/>
  <rect x="104" y="358" width="248" height="168" fill="#2D6E88"/>
  <rect x="354" y="358" width="226" height="168" fill="#3F2A87"/>

  <rect x="624" y="202" width="170" height="12" rx="6" fill="#2F4E75"/>
  <rect x="624" y="226" width="144" height="12" rx="6" fill="#284466"/>
  <rect x="624" y="250" width="160" height="12" rx="6" fill="#24405F"/>

  <rect x="624" y="382" width="170" height="12" rx="6" fill="#2F4E75"/>
  <rect x="624" y="406" width="140" height="12" rx="6" fill="#284466"/>
  <rect x="624" y="430" width="156" height="12" rx="6" fill="#24405F"/>

  <text x="880" y="210" fill="#ECF4FF" font-family="Segoe UI, Arial" font-size="78" font-weight="700">icicle</text>
  <text x="884" y="260" fill="#9DB8DE" font-family="Segoe UI, Arial" font-size="30">Desktop + CLI • Windows Disk Intelligence</text>

  <rect x="884" y="292" width="650" height="64" rx="12" fill="#0D182B" stroke="#2B456B"/>
  <text x="912" y="332" fill="#DDEBFF" font-family="Consolas, monospace" font-size="24">WizMap · Heavy Scan · Scheduler · Safe Cleanup · Routing Rules</text>

  <rect x="884" y="382" width="320" height="78" rx="14" fill="url(#b)"/>
  <text x="918" y="430" fill="#FFFFFF" font-family="Segoe UI, Arial" font-size="30" font-weight="700">EU / RU Ready</text>

  <rect x="1218" y="382" width="316" height="78" rx="14" fill="#142541" stroke="#34598A"/>
  <text x="1250" y="430" fill="#D9E9FF" font-family="Segoe UI, Arial" font-size="30" font-weight="700">v2.4 Feature Pack</text>

  <text x="884" y="512" fill="#AFC6E7" font-family="Segoe UI, Arial" font-size="24">Fast under heavy I/O • Encrypted profiles • Winget templates</text>
</svg>

