<svg xmlns="http://www.w3.org/2000/svg" width="1100" height="700" viewBox="0 0 1100 700">
  <rect width="1100" height="700" fill="#0f1626"/>
  <rect x="20" y="20" width="1060" height="660" rx="14" fill="#141f33" stroke="#2b4669"/>
  <rect x="40" y="40" width="300" height="620" rx="12" fill="#1a2740" stroke="#34557c"/>
  <text x="58" y="86" fill="#dff1ff" font-family="Segoe UI" font-size="46" font-weight="700">icicle</text>
  <text x="58" y="114" fill="#8eb6d8" font-family="Segoe UI" font-size="16">Desktop App v2</text>
  <rect x="58" y="132" width="264" height="1" fill="#34557c"/>

  <rect x="58" y="154" width="264" height="36" rx="9" fill="#0f1c31" stroke="#33557a"/>
  <text x="70" y="177" fill="#9ec7e8" font-family="Segoe UI" font-size="14">Path: C:\Users\me\Downloads</text>
  <rect x="58" y="202" width="84" height="32" rx="8" fill="#2e78d0"/>
  <rect x="148" y="202" width="84" height="32" rx="8" fill="#2e78d0"/>
  <rect x="238" y="202" width="84" height="32" rx="8" fill="#3f4f63"/>

  <rect x="360" y="40" width="720" height="210" rx="12" fill="#1a2740" stroke="#34557c"/>
  <text x="382" y="72" fill="#b8d7ef" font-family="Segoe UI" font-size="18">System storage</text>
  <rect x="382" y="90" width="210" height="70" rx="10" fill="#0f1c31" stroke="#33557a"/>
  <rect x="608" y="90" width="210" height="70" rx="10" fill="#0f1c31" stroke="#33557a"/>
  <rect x="834" y="90" width="226" height="70" rx="10" fill="#0f1c31" stroke="#33557a"/>

  <rect x="382" y="270" width="720" height="390" rx="12" fill="#0d182b" stroke="#2d4d71"/>
  <text x="404" y="300" fill="#9ec7e8" font-family="Consolas" font-size="15">&gt; tree C:\</text>
  <text x="404" y="326" fill="#d8edff" font-family="Consolas" font-size="14">|- [DIR] Users               119.3 GB</text>
  <text x="404" y="348" fill="#d8edff" font-family="Consolas" font-size="14">|- [DIR] pinokio             114.7 GB</text>
  <text x="404" y="370" fill="#d8edff" font-family="Consolas" font-size="14">|- [DIR] Windows              41.5 GB</text>
  <text x="404" y="402" fill="#8bb1d4" font-family="Segoe UI" font-size="13">Compact layout, fast actions, no browser.</text>
</svg>
